PathFileType	4	(X/Y/Z)	 s04c0203.trc
DataRate	CameraRate	NumFrames	NumMarkers	Units	OrigDataRate	OrigDataStartFrame	OrigNumFrames
200	200	4	50	mm	200	501	2000
Frame#	Time	racr			lacr			c7			jug			rlel			rdr			llel			ldr			s2			lic			ric			lasi			rasi			rpsi			lpsi			rgt			lgt			rth1			rth2			rth3			rth4			rlfc			rmfc			rsh1			rsh2			rsh3			rsh4			rlmal			rmmal			rcal			rtoe			rmt5			lth1			lth2			lth4			lth3			llfc			lmfc			lsh1			lsh2			lsh3			lsh4			llmal			lmmal			lcal			ltoe			lmt5			SBIKE			LBIKE			RBIKE			
		X1	Y1	Z1	X2	Y2	Z2	X3	Y3	Z3	X4	Y4	Z4	X5	Y5	Z5	X6	Y6	Z6	X7	Y7	Z7	X8	Y8	Z8	X9	Y9	Z9	X10	Y10	Z10	X11	Y11	Z11	X12	Y12	Z12	X13	Y13	Z13	X14	Y14	Z14	X15	Y15	Z15	X16	Y16	Z16	X17	Y17	Z17	X18	Y18	Z18	X19	Y19	Z19	X20	Y20	Z20	X21	Y21	Z21	X22	Y22	Z22	X23	Y23	Z23	X24	Y24	Z24	X25	Y25	Z25	X26	Y26	Z26	X27	Y27	Z27	X28	Y28	Z28	X29	Y29	Z29	X30	Y30	Z30	X31	Y31	Z31	X32	Y32	Z32	X33	Y33	Z33	X34	Y34	Z34	X35	Y35	Z35	X36	Y36	Z36	X37	Y37	Z37	X38	Y38	Z38	X39	Y39	Z39	X40	Y40	Z40	X41	Y41	Z41	X42	Y42	Z42	X43	Y43	Z43	X44	Y44	Z44	X45	Y45	Z45	X46	Y46	Z46	X47	Y47	Z47	X48	Y48	Z48	X49	Y49	Z49	X50	Y50	Z50	
501	2.5050	476.892389	1392.146348	-153.326595	493.317474	1373.848815	-409.757895	463.145535	1438.456755	-282.412736	443.358969	1284.488221	-283.464675	448.163549	1116.313103	18.308905	666.042069	939.411095	-79.032115	462.640271	1118.877167	-562.760718	671.019340	949.193785	-455.564255	-97.075330	1183.833702	-276.772957	55.461316	1203.442997	-430.376830	60.359891	1197.348117	-109.251601	99.649353	1165.111856	-388.666447	105.529721	1151.265636	-155.343994	-67.445027	1228.178575	-231.398551	-70.872941	1235.819386	-305.837429	12.016885	1132.518116	-93.726657	33.994457	1125.569767	-458.039820	124.751386	1010.010362	-84.839009	192.998782	955.426776	-96.547841	228.738087	877.668722	-96.370432	216.878105	975.282757	-115.968430	288.873756	746.477869	-117.968395	267.019309	729.629184	-230.702020	208.591024	649.727769	-94.026174	173.995148	567.087820	-111.016017	101.888051	518.378160	-120.057235	199.876464	551.105516	-134.262482	17.618857	389.103760	-127.907894	46.064914	386.503762	-212.484037	-53.910724	387.623647	-175.020650	205.728752	228.974555	-149.262934	130.639228	241.925388	-103.327737	101.903579	1066.010419	-462.880901	185.789128	1044.351469	-463.772617	203.339212	1075.327236	-454.561058	249.189586	981.641178	-464.304361	374.152780	879.768717	-440.607539	408.624071	861.680169	-330.621181	364.060847	760.246586	-461.220039	361.748549	674.980080	-441.788964	318.618384	597.686710	-440.162990	389.897097	670.743676	-414.072371	269.679101	459.925596	-435.245708	269.042223	467.850928	-347.539741	191.711398	428.320434	-396.460966	493.164559	444.238206	-400.693086	426.744692	400.578774	-462.709159	-176.835569	933.195138	-279.349834	-3.264848	85.520623	-484.719026	-15.004094	80.391616	-84.178591	
502	2.5100	477.631477	1392.434048	-153.663077	494.113671	1373.938570	-410.148839	463.953174	1438.608902	-282.784181	444.320237	1284.662290	-283.673455	448.579066	1117.096711	18.606575	665.600729	939.559801	-78.924889	462.759435	1118.810557	-563.035314	671.198040	949.352820	-456.062620	-96.288373	1184.118318	-276.755622	56.180476	1203.285256	-430.472087	61.113377	1197.885220	-109.362415	100.135207	1164.395325	-387.932968	107.424183	1151.840242	-154.623272	-66.819449	1228.676619	-231.413774	-69.952675	1236.084022	-305.908343	12.766930	1133.390577	-93.484293	34.719537	1124.325681	-457.524041	126.070517	1011.684948	-84.601413	194.740277	957.481129	-96.118126	231.033779	880.037284	-95.899130	218.446400	977.738991	-115.524408	291.726676	749.217255	-117.055918	269.855819	732.396537	-230.091106	210.290273	653.279122	-93.517181	174.801854	571.135966	-110.407555	101.965811	523.408532	-119.640815	200.420688	554.799348	-133.732653	16.253069	395.468817	-127.611961	44.559675	392.445563	-212.333888	-55.640972	394.362017	-174.835541	203.065616	234.469893	-149.182033	128.043688	247.699232	-103.346819	102.363833	1063.608614	-462.414552	185.932064	1040.760331	-463.278898	204.563460	1071.835471	-454.840081	248.453679	977.104549	-463.328894	372.247827	873.970430	-439.678699	406.084497	856.433237	-329.792603	362.932686	754.039128	-460.429738	361.523917	668.714241	-441.168725	319.210848	591.078694	-439.855520	389.621843	664.798786	-413.427123	271.787503	452.881104	-435.539782	270.781618	460.617003	-347.769856	194.448939	420.038269	-396.447488	495.319737	438.838726	-400.298681	429.414015	394.714222	-462.611279	-176.796871	933.233748	-279.341874	-3.304083	85.468438	-484.656802	-15.005772	80.394229	-84.177530	
503	2.5150	478.294340	1392.813324	-153.912377	494.913581	1373.980593	-410.556430	464.751328	1438.775463	-283.055088	445.284511	1284.911829	-283.772415	448.873478	1117.833312	18.842842	665.272451	939.818448	-78.727438	462.703181	1118.767339	-563.363326	671.332390	949.443723	-456.544719	-95.576198	1184.400892	-276.665372	56.391295	1202.634665	-429.311314	61.876840	1198.373472	-109.500116	100.623726	1163.584412	-387.123352	108.035481	1152.122367	-154.739006	-66.177440	1229.127216	-231.400095	-69.061960	1236.258801	-306.041220	13.549686	1134.093886	-93.241183	35.509017	1123.049664	-456.998594	127.454720	1013.112670	-84.365001	196.614698	959.574454	-95.644334	233.315227	882.359940	-95.365132	220.325540	979.991290	-114.646905	294.799857	752.045548	-116.104707	272.933167	735.215085	-229.269878	212.166329	657.064171	-92.871922	174.726627	575.063785	-110.285476	102.187249	528.495947	-119.223063	201.024461	558.677630	-133.234844	14.957388	401.760108	-127.393766	43.239075	398.590157	-212.154240	-57.154664	401.310574	-174.756772	200.719475	239.913127	-149.150609	125.657560	253.380062	-103.270008	102.927427	1061.103020	-462.002676	186.168858	1037.082142	-462.852719	205.254853	1068.118067	-454.527331	247.796974	972.671442	-462.414443	370.409161	868.074772	-438.794993	403.495757	850.700116	-328.809083	361.670452	747.854794	-459.732170	361.150489	662.516776	-440.620082	319.542084	584.551308	-439.798740	389.203817	658.796939	-412.816343	273.957375	445.726010	-435.767355	272.460708	453.700360	-348.135892	197.068283	411.876248	-396.357022	497.337718	433.269504	-399.953801	431.895217	388.779528	-462.435274	-176.724877	933.275271	-279.332427	-3.295600	85.479948	-484.639474	-15.004396	80.385071	-84.172628	
504	2.5200	479.002869	1393.228288	-154.167814	495.610076	1374.111108	-410.985455	465.524807	1439.070061	-283.412665	446.195423	1285.164566	-283.870793	449.092925	1118.687260	19.109517	665.053163	940.169409	-78.490513	462.654067	1118.772383	-563.658213	671.432125	949.507223	-456.984963	-94.714986	1184.567276	-276.727222	57.062363	1202.269847	-429.376546	62.677619	1198.863910	-109.648940	101.112552	1162.674033	-386.236237	108.744039	1152.279683	-154.748795	-65.484617	1229.459954	-231.423412	-68.145459	1236.272046	-305.990095	14.366002	1134.782187	-93.031359	36.288862	1121.711987	-456.441125	128.785734	1014.702612	-84.086591	198.156584	961.067012	-95.976574	235.617898	884.647252	-94.734172	222.149363	981.980056	-114.206465	297.961654	754.891245	-115.212997	276.218487	738.187965	-228.508224	214.145163	660.559382	-92.341719	175.831542	579.349489	-109.686541	102.753034	533.757956	-118.802950	201.893659	562.741511	-132.705120	13.817302	408.264497	-127.315826	42.172581	404.928538	-212.060658	-58.346456	408.403278	-174.757675	198.505673	245.670345	-149.118964	123.559079	259.471227	-103.233515	103.591320	1058.697597	-461.693772	186.526790	1033.492502	-462.293951	205.960708	1064.367822	-454.168488	247.271257	968.150870	-461.409892	368.555464	862.301675	-438.483084	400.822458	844.709403	-327.922210	360.311819	741.790729	-459.125336	360.628356	656.379560	-440.155069	319.906120	577.962272	-439.630390	388.731140	652.849523	-412.338683	275.857668	438.646424	-436.083549	273.904812	447.204492	-349.058772	198.569726	404.901312	-397.638877	499.227553	427.227786	-399.338925	434.214623	382.682516	-462.336198	-176.648051	933.311338	-279.302431	-3.279573	85.489503	-484.642750	-14.997222	80.377956	-84.151605	
